<svg version="1.1" viewBox="0.0 0.0 960.0 540.0" fill="none" stroke="none" stroke-linecap="square" stroke-miterlimit="10" xmlns:xlink="http://www.w3.org/1999/xlink" xmlns="http://www.w3.org/2000/svg"><clipPath id="p.0"><path d="m0 0l960.0 0l0 540.0l-960.0 0l0 -540.0z" clip-rule="nonzero"/></clipPath><g clip-path="url(#p.0)"><path fill="#ffffff" d="m0 0l960.0 0l0 540.0l-960.0 0z" fill-rule="evenodd"/><path fill="#000000" fill-opacity="0.0" d="m32.72441 221.31758l294.04724 0l0 72.34645l-294.04724 0z" fill-rule="evenodd"/><path fill="#ffffff" d="m72.11131 236.66405l215.27342 0l0 47.999985l-215.27342 0l0 -47.999985z" fill-rule="nonzero"/><path fill="#000000" fill-opacity="0.0" d="m72.11131 221.86092l215.27342 0l0 77.968735l-215.27342 0l0 -77.968735z" fill-rule="nonzero"/><path fill="#000000" d="m85.28319 237.01717q0.65625 0.03125 1.015625 1.171875q-2.15625 3.515625 -4.96875 12.765625q-1.09375 2.625 -3.078125 5.3124847q5.265625 14.140625 8.46875 17.234375q1.5625 1.171875 1.53125 1.765625q-0.3125 1.09375 -1.21875 1.046875l-0.078125 0q-1.59375 -0.390625 -5.1875 -5.984375q-2.5 -5.03125 -4.453125 -10.5l-0.234375 -0.046875q-0.515625 8.828125 0.34375 14.84375q-0.46875 1.0625 -1.28125 0.984375l-0.359375 0q-1.515625 -0.078125 -1.046875 -17.65625q-1.0625 -13.01561 -0.703125 -19.26561q0.078125 -1.359375 1.328125 -1.28125q1.015625 0.03125 1.015625 1.640625q-0.359375 6.046875 0.46875 15.078125l0.078125 0q1.4375 -1.375 3.75 -8.28125q2.734375 -8.90625 4.609375 -8.828125zm9.6015625 24.093735q2.1875 0 2.96875 3.953125q-1.015625 4.40625 -4.171875 4.40625l-0.15625 0l0 0.125q0.625 3.546875 3.3125 3.546875q2.078125 0 3.359375 -3.546875l0.859375 -0.359375q0.859375 0 1.09375 1.328125q0 2.421875 -3.78125 4.578125l-1.875 0.359375q-3.359375 0 -5.046875 -4.8125q-0.46875 -1.921875 -0.46875 -3.171875l0 -0.5q0 -3.984375 3.328125 -5.78125l0.578125 -0.125zm-1.4375 4.921875l0 0.078125l0.859375 0.90625q0.578125 0 1.09375 -1.609375l0 -0.625q-0.203125 -1.203125 -0.515625 -1.203125l-0.234375 0q-0.578125 0 -1.203125 2.453125zm12.453125 -25.57811q0.59375 0.03125 1.09375 0.96875q-0.265625 0.4375 -0.34375 1.5625l-0.046875 0.515625l0.234375 15.39061q-0.1875 10.46875 0.234375 15.34375l0.078125 0.3125q-0.34375 0.75 -1.125 0.71875q-1.765625 -0.125 -1.40625 -4.859375q-0.234375 -2.578125 -0.234375 -23.70311q-0.234375 -1.296875 -0.125 -3.40625l0 -0.15625q0.203125 -2.765625 1.640625 -2.6875zm10.9453125 21.51561l2.34375 0.390625l0 -0.109375q0.859375 0 1.328125 1.359375l-0.125 2.46875l0 1.71875q0 3.78125 1.09375 5.65625q-0.3125 0.984375 -1.203125 0.984375q-1.296875 0 -1.875 -2.96875l-0.078125 -0.625l-0.359375 0q-1.40625 3.3125 -3.984375 4.421875l-0.578125 0.15625q-3.359375 -0.953125 -3.359375 -4.9375l0 -0.234375q0 -4.953125 4.796875 -7.890625l2.0 -0.390625zm-4.453125 9.03125q0.265625 1.953125 1.25 1.953125l0.109375 0q1.375 0 4.296875 -8.25l0 -0.109375l-1.125 -0.234375l-0.078125 0q-3.125 0 -4.453125 5.390625l0 1.25zm15.703125 -10.78125q2.03125 0 2.453125 1.71875q0 0.8125 -1.09375 1.015625l-0.34375 0q-0.515625 -0.359375 -0.90625 -0.359375l-0.34375 0q-2.578125 1.09375 -2.578125 3.28125l0 0.359375q0.1875 1.28125 1.203125 1.28125l0.359375 0l2.6875 -0.5q2.0 0.234375 2.0 1.953125q0 2.53125 -3.09375 5.421875q-1.4375 1.109375 -2.921875 1.109375q-2.703125 -0.59375 -2.703125 -2.234375q0.390625 -0.984375 1.328125 -0.984375l1.21875 0.859375l0.625 0q2.84375 -1.09375 2.84375 -3.546875l-0.15625 -0.15625q-0.96875 0.34375 -2.1875 0.34375q-2.890625 0 -3.546875 -3.75q0 -3.390625 3.78125 -5.546875l1.375 -0.265625zm10.546875 -22.23436q3.828125 0 5.8125 4.765625l0.234375 1.484375q0 4.453125 -5.03125 11.6875q-1.6875 1.6406097 -3.09375 2.1093597l0.125 1.09375l0.234375 15.265625q0 0.90625 -1.21875 1.109375q-1.09375 0 -1.09375 -1.5q0 -17.0625 -0.734375 -17.0625q-0.984375 -1.3749847 -0.984375 -2.0781097q0 -0.78125 1.21875 -1.015625l-0.390625 -12.03125q0 -2.96875 1.28125 -2.96875l0.703125 0.125q1.484375 -0.984375 2.9375 -0.984375zm-2.421875 3.671875l0.265625 12.8125l0.078125 0.859375q2.578125 -1.015625 5.046875 -7.765625q0.78125 -1.84375 0.78125 -3.671875q-1.09375 -3.5625 -3.4375 -3.5625l-0.546875 0q-1.25 0 -2.1875 1.328125zm16.640625 20.312485l2.34375 0.390625l0 -0.109375q0.859375 0 1.328125 1.359375l-0.125 2.46875l0 1.71875q0 3.78125 1.09375 5.65625q-0.3125 0.984375 -1.203125 0.984375q-1.296875 0 -1.875 -2.96875l-0.078125 -0.625l-0.359375 0q-1.40625 3.3125 -3.984375 4.421875l-0.578125 0.15625q-3.359375 -0.953125 -3.359375 -4.9375l0 -0.234375q0 -4.953125 4.796875 -7.890625l2.0 -0.390625zm-4.453125 9.03125q0.265625 1.953125 1.25 1.953125l0.109375 0q1.375 0 4.296875 -8.25l0 -0.109375l-1.125 -0.234375l-0.078125 0q-3.125 0 -4.453125 5.390625l0 1.25zm12.765625 -18.093735q1.015625 0.359375 1.015625 1.25l0 0.125q-0.1875 1.328125 -1.359375 1.328125q-0.828125 0 -0.984375 -1.09375q0 -1.609375 1.328125 -1.609375zm0.390625 6.1718597q0.671875 0 1.09375 1.09375l-0.234375 1.84375q1.953125 18.515625 1.953125 22.9375q0 6.984375 -3.90625 9.21875l-1.25 0.109375q-3.28125 0 -5.90625 -5.1875l0 -0.234375q0 -0.859375 1.328125 -0.9375q0.671875 0 1.640625 2.0625q1.6875 1.953125 2.546875 1.953125l0.859375 0q2.265625 -1.484375 2.265625 -5.65625l0 -2.8125q0 -4.34375 -1.875 -21.578125q0 -2.8125 1.484375 -2.8125zm10.984375 2.890625l2.34375 0.390625l0 -0.109375q0.859375 0 1.328125 1.359375l-0.125 2.46875l0 1.71875q0 3.78125 1.09375 5.65625q-0.3125 0.984375 -1.203125 0.984375q-1.296875 0 -1.875 -2.96875l-0.078125 -0.625l-0.359375 0q-1.40625 3.3125 -3.984375 4.421875l-0.578125 0.15625q-3.359375 -0.953125 -3.359375 -4.9375l0 -0.234375q0 -4.953125 4.796875 -7.890625l2.0 -0.390625zm-4.453125 9.03125q0.265625 1.953125 1.25 1.953125l0.109375 0q1.375 0 4.296875 -8.25l0 -0.109375l-1.125 -0.234375l-0.078125 0q-3.125 0 -4.453125 5.390625l0 1.25zm13.0 -36.218735q0.90625 0.046875 0.9375 1.40625l-0.1875 3.046875l-0.546875 24.10936l0.078125 0.03125q3.828125 -4.453125 5.109375 -4.375l0.203125 0q0.859375 0.671875 0.8125 1.296875q0 0.3125 -1.953125 1.953125q-2.96875 3.125 -3.359375 4.375q-0.078125 1.71875 5.984375 5.5q1.828125 0.390625 1.75 1.609375q-0.078125 0.8125 -1.203125 0.9375q-2.5 -0.125 -7.1875 -4.890625l-0.234375 0q-0.234375 3.71875 -0.046875 4.6875q-0.390625 2.9375 -1.90625 2.90625q-1.328125 -0.234375 -1.296875 -1.25l0.703125 -1.0625l0.75 -35.82811l0.15625 -3.078125q0.1875 -1.453125 1.4375 -1.375zm28.757812 3.40625q0.9375 0.3125 0.9375 1.359375l-0.46875 14.765625l0.703125 14.26561q0 7.03125 -1.484375 7.03125l-0.234375 0q-1.921875 0 -5.671875 -11.0625q0 -0.625 -0.34375 -0.78125q-2.265625 7.265625 -4.578125 11.5l-0.703125 0.078125q-1.203125 0 -1.484375 -3.21875q-3.828125 -21.51561 -3.828125 -31.593735q0 -1.375 1.25 -1.375q0.984375 0 1.140625 1.640625q0 9.96875 3.4375 28.98436l0.078125 0q1.25 -1.953125 3.546875 -10.703125q0 -1.953125 1.375 -1.953125q1.125 0 1.359375 2.625q1.0625 5.859375 3.5625 10.8125l0.15625 0.125l0.109375 -0.125l0 -1.984375l-0.734375 -14.60936l0.46875 -14.8125q0 -0.859375 1.40625 -0.96875zm5.78125 17.03125q1.015625 0 1.25 1.3281097q0 0.625 -0.859375 1.203125l-0.390625 0q-1.09375 0 -1.09375 -1.328125q0.3125 -1.2031097 1.09375 -1.2031097zm0.265625 5.2656097q1.328125 0.203125 0.75 3.953125q-0.46875 3.078125 -0.15625 10.34375q-0.59375 1.140625 -1.53125 0.984375q-1.09375 -0.15625 -0.890625 -3.875q-0.078125 -6.484375 0.65625 -10.859375q0.078125 -0.578125 1.171875 -0.546875zm7.3125 -19.48436q1.25 0 1.109375 7.515625q-0.140625 7.5156097 -0.140625 10.64061l0.078125 0l2.34375 -0.34375q1.140625 0.15625 1.140625 1.125q0 1.328125 -2.46875 1.328125l-1.015625 0.359375l0.359375 13.078125q-0.15625 1.34375 -1.21875 1.34375q-1.25 0 -1.25 -1.84375l0 -3.09375l-0.078125 -8.703125l-0.15625 -0.390625l-1.71875 0.109375q-1.09375 -0.234375 -1.09375 -1.203125q0 -1.21875 2.703125 -1.21875l0 -0.15625q0 -4.9999847 0.15625 -17.45311q0 -0.984375 1.25 -1.09375zm7.921875 -3.75q0.859375 0 1.015625 1.359375l0 2.1875q0 7.9375 -0.109375 21.093735q1.4375 -1.4375 2.6875 -1.4375q3.171875 0 4.109375 6.875q0.109375 5.109375 0.578125 8.875q0 0.65625 -1.25 1.203125q-1.328125 -0.65625 -1.328125 -1.4375l0.15625 -0.125l0 -0.15625q-0.578125 -11.796875 -1.25 -11.796875q-0.46875 -0.9375 -0.859375 -1.09375l-0.390625 0q-1.953125 1.71875 -1.953125 4.171875l0.078125 8.40625q-0.46875 1.140625 -1.203125 1.140625q-1.296875 0 -1.640625 -3.609375q0.265625 -2.375 0.265625 -4.09375l0 -0.125l-0.078125 -0.109375l0.078125 -0.125l0 -0.96875l0.234375 -17.85936q-0.46875 -4.375 -0.46875 -8.59375l0 -2.34375q0.078125 -1.4375 1.328125 -1.4375zm11.3359375 0.96875q1.203125 0 1.203125 3.671875q0.984375 30.54686 1.875 30.54686l1.09375 -0.265625l4.421875 0.109375l1.484375 -0.34375q0.578125 0 1.125 1.125q-0.390625 1.5625 -3.203125 1.5625l-4.09375 -0.078125q-0.46875 0 -1.71875 0.828125l-0.59375 0q-1.203125 0 -1.59375 -9.109375q-0.46875 -5.8125 -1.25 -27.218735q0.3125 -0.828125 1.25 -0.828125zm16.789047 22.89061q2.1875 0 2.96875 3.953125q-1.015625 4.40625 -4.171875 4.40625l-0.15625 0l0 0.125q0.625 3.546875 3.3125 3.546875q2.078125 0 3.359375 -3.546875l0.859375 -0.359375q0.859375 0 1.09375 1.328125q0 2.421875 -3.78125 4.578125l-1.875 0.359375q-3.359375 0 -5.0468597 -4.8125q-0.46875 -1.921875 -0.46875 -3.171875l0 -0.5q0 -3.984375 3.3281097 -5.78125l0.578125 -0.125zm-1.4375 4.921875l0 0.078125l0.859375 0.90625q0.578125 0 1.09375 -1.609375l0 -0.625q-0.203125 -1.203125 -0.515625 -1.203125l-0.234375 0q-0.578125 0 -1.203125 2.453125zm15.390625 -5.8125q2.03125 0 2.453125 1.71875q0 0.8125 -1.09375 1.015625l-0.34375 0q-0.515625 -0.359375 -0.90625 -0.359375l-0.34375 0q-2.578125 1.09375 -2.578125 3.28125l0 0.359375q0.1875 1.28125 1.203125 1.28125l0.359375 0l2.6875 -0.5q2.0 0.234375 2.0 1.953125q0 2.53125 -3.09375 5.421875q-1.4375 1.109375 -2.921875 1.109375q-2.703125 -0.59375 -2.703125 -2.234375q0.390625 -0.984375 1.328125 -0.984375l1.21875 0.859375l0.625 0q2.84375 -1.09375 2.84375 -3.546875l-0.15625 -0.15625q-0.96875 0.34375 -2.1875 0.34375q-2.890625 0 -3.546875 -3.75q0 -3.390625 3.78125 -5.546875l1.375 -0.265625zm10.15625 0q2.03125 0 2.453125 1.71875q0 0.8125 -1.09375 1.015625l-0.34375 0q-0.515625 -0.359375 -0.90625 -0.359375l-0.34375 0q-2.578125 1.09375 -2.578125 3.28125l0 0.359375q0.1875 1.28125 1.203125 1.28125l0.359375 0l2.6875 -0.5q2.0 0.234375 2.0 1.953125q0 2.53125 -3.09375 5.421875q-1.4375 1.109375 -2.921875 1.109375q-2.703125 -0.59375 -2.703125 -2.234375q0.390625 -0.984375 1.328125 -0.984375l1.21875 0.859375l0.625 0q2.84375 -1.09375 2.84375 -3.546875l-0.15625 -0.15625q-0.96875 0.34375 -2.1875 0.34375q-2.890625 0 -3.546875 -3.75q0 -3.390625 3.78125 -5.546875l1.375 -0.265625z" fill-rule="nonzero"/></g></svg>