<?xml version="1.0" encoding="iso-8859-1"?>
<!-- Generator: Adobe Illustrator 19.0.0, SVG Export Plug-In . SVG Version: 6.00 Build 0)  -->
<svg version="1.1" id="Capa_1" xmlns="http://www.w3.org/2000/svg" xmlns:xlink="http://www.w3.org/1999/xlink" x="0px" y="0px"
	 viewBox="0 0 512 512" style="enable-background:new 0 0 512 512;" xml:space="preserve">
<rect x="411.756" y="257.289" style="fill:#E8313F;" width="87.478" height="67.331"/>
<polyline style="fill:#DADDE0;" points="349.345,59.983 431.906,59.983 431.906,153.965 431.906,221.296 431.906,434.428 
	431.906,512 372.331,512 353.875,512 72.264,512 72.264,452.028 "/>
<rect x="319.382" y="153.964" style="fill:#FFB600;" width="155.008" height="67.331"/>
<polygon style="fill:#E5EAF0;" points="372.408,374.447 372.408,452.026 12.766,452.026 12.766,0 289.315,0 372.408,83.018 
	372.408,192.484 "/>
<polyline style="fill:#F2F3F4;" points="372.407,83.018 289.315,83.018 289.315,0 "/>
<g>
	<path style="fill:#414551;" d="M253.338,94.09H131.836c-4.325,0-7.829-3.505-7.829-7.829c0-4.324,3.504-7.829,7.829-7.829h121.503
		c4.325,0,7.829,3.505,7.829,7.829C261.168,90.585,257.662,94.09,253.338,94.09z"/>
	<path style="fill:#414551;" d="M335.27,160.507H49.903c-4.325,0-7.829-3.505-7.829-7.829s3.504-7.829,7.829-7.829H335.27
		c4.325,0,7.829,3.505,7.829,7.829S339.594,160.507,335.27,160.507z"/>
	<path style="fill:#414551;" d="M335.27,213.779H49.903c-4.325,0-7.829-3.505-7.829-7.829c0-4.324,3.504-7.829,7.829-7.829H335.27
		c4.325,0,7.829,3.505,7.829,7.829C343.099,210.274,339.594,213.779,335.27,213.779z"/>
	<path style="fill:#414551;" d="M335.27,267.05H49.903c-4.325,0-7.829-3.505-7.829-7.829c0-4.324,3.504-7.829,7.829-7.829H335.27
		c4.325,0,7.829,3.505,7.829,7.829C343.099,263.545,339.594,267.05,335.27,267.05z"/>
	<path style="fill:#414551;" d="M335.27,320.322H49.903c-4.325,0-7.829-3.505-7.829-7.829c0-4.324,3.504-7.829,7.829-7.829H335.27
		c4.325,0,7.829,3.505,7.829,7.829C343.099,316.817,339.594,320.322,335.27,320.322z"/>
	<path style="fill:#414551;" d="M335.27,373.594H49.903c-4.325,0-7.829-3.505-7.829-7.829c0-4.324,3.504-7.829,7.829-7.829H335.27
		c4.325,0,7.829,3.505,7.829,7.829C343.099,370.089,339.594,373.594,335.27,373.594z"/>
</g>
<g>
</g>
<g>
</g>
<g>
</g>
<g>
</g>
<g>
</g>
<g>
</g>
<g>
</g>
<g>
</g>
<g>
</g>
<g>
</g>
<g>
</g>
<g>
</g>
<g>
</g>
<g>
</g>
<g>
</g>
</svg>
