<?xml version="1.0" encoding="iso-8859-1"?>
<!-- Generator: Adobe Illustrator 19.0.0, SVG Export Plug-In . SVG Version: 6.00 Build 0)  -->
<svg version="1.1" id="Capa_1" xmlns="http://www.w3.org/2000/svg" xmlns:xlink="http://www.w3.org/1999/xlink" x="0px" y="0px"
	 viewBox="0 0 512 512" style="enable-background:new 0 0 512 512;" xml:space="preserve">
<path style="fill:#F072AE;" d="M277.985,154.419l116.781,319.78c4.977,13.629,35.099,15.152,67.278,3.4
	c32.18-11.752,54.232-32.327,49.254-45.956l-116.781-319.78L277.985,154.419z"/>
<path style="fill:#ED539D;" d="M328.315,136.045l-50.33,18.38l116.781,319.78c4.561,12.489,30.235,14.804,59.257,6.064
	L328.315,136.045z"/>
<ellipse transform="matrix(-0.343 -0.9393 0.9393 -0.343 326.4989 494.6663)" style="fill:#F7AFD1;" cx="336.24" cy="133.153" rx="26.272" ry="62.025"/>
<path style="fill:#F490C0;" d="M327.239,108.463c-32.18,11.751-54.231,32.327-49.254,45.956
	c4.561,12.488,30.234,14.804,59.255,6.065c-13.854-33.084,31.074-59.918,31.074-59.918l0,0
	C356.589,100.432,342.138,103.022,327.239,108.463z"/>
<path style="fill:#78B9EB;" d="M158.473,223.269L78.644,402.688c-5.899,13.256,14.693,35.293,45.993,49.219
	s61.455,14.469,67.353,1.213l79.829-179.418L158.473,223.269z"/>
<path style="fill:#5AAAE7;" d="M207.425,245.049l-48.952-21.78L78.644,402.688c-5.404,12.147,11.439,31.66,38.373,45.556
	L207.425,245.049z"/>
<ellipse transform="matrix(0.4065 -0.9136 0.9136 0.4065 -99.3259 344.0216)" style="fill:#C2DFF6;" cx="215.141" cy="248.465" rx="26.271" ry="62.024"/>
<path style="fill:#96C8EF;" d="M225.827,224.482c-31.3-13.926-61.455-14.469-67.353-1.211
	c-5.404,12.147,11.439,31.661,38.373,45.557c13.044-33.411,63.994-21.463,63.994-21.463l0,0
	C252.506,239.115,240.318,230.929,225.827,224.482z"/>
<circle style="fill:#ED539D;" cx="230.194" cy="72.056" r="28.505"/>
<circle style="fill:#C2DFF6;" cx="28.505" cy="268.828" r="28.505"/>
<circle style="fill:#F7AFD1;" cx="308.416" cy="45.567" r="19.074"/>
<circle style="fill:#78B9EB;" cx="290.635" cy="426.961" r="19.074"/>
<g>
</g>
<g>
</g>
<g>
</g>
<g>
</g>
<g>
</g>
<g>
</g>
<g>
</g>
<g>
</g>
<g>
</g>
<g>
</g>
<g>
</g>
<g>
</g>
<g>
</g>
<g>
</g>
<g>
</g>
</svg>
