<svg id="Capa_1" enable-background="new 0 0 510 510" height="512" viewBox="0 0 510 510" width="512" xmlns="http://www.w3.org/2000/svg" xmlns:xlink="http://www.w3.org/1999/xlink"><linearGradient id="lg1"><stop offset="0" stop-color="#c4f8b6"/><stop offset="1" stop-color="#3b8eac"/></linearGradient><linearGradient id="SVGID_1_" gradientUnits="userSpaceOnUse" x1="204.731" x2="334.909" xlink:href="#lg1" y1="338.324" y2="759.343"/><linearGradient id="lg2"><stop offset="0" stop-color="#fba5c2" stop-opacity="0"/><stop offset="1" stop-color="#a34a9e"/></linearGradient><linearGradient id="SVGID_2_" gradientUnits="userSpaceOnUse" x1="301.051" x2="80.448" xlink:href="#lg2" y1="471.297" y2="194.463"/><linearGradient id="SVGID_3_" gradientUnits="userSpaceOnUse" x1="358.773" x2="358.773" xlink:href="#lg2" y1="454.794" y2="647.653"/><linearGradient id="SVGID_4_" gradientUnits="userSpaceOnUse" x1="383.571" x2="207.665" xlink:href="#lg2" y1="465.836" y2="462.129"/><linearGradient id="lg3"><stop offset="0" stop-color="#a34a9e"/><stop offset="1" stop-color="#343168"/></linearGradient><linearGradient id="SVGID_5_" gradientUnits="userSpaceOnUse" x1="249.58" x2="296.543" xlink:href="#lg3" y1="460.876" y2="531.32"/><linearGradient id="SVGID_6_" gradientUnits="userSpaceOnUse" x1="152.712" x2="242.924" xlink:href="#lg1" y1="408.93" y2="499.142"/><linearGradient id="SVGID_7_" gradientTransform="matrix(-1 0 0 1 -3847.351 0)" gradientUnits="userSpaceOnUse" x1="-4204.638" x2="-4114.427" xlink:href="#lg1" y1="408.93" y2="499.142"/><linearGradient id="lg4"><stop offset="0" stop-color="#fccece"/><stop offset="1" stop-color="#fba5c2"/></linearGradient><linearGradient id="SVGID_8_" gradientUnits="userSpaceOnUse" x1="118.364" x2="181.51" xlink:href="#lg4" y1="207.933" y2="279.521"/><linearGradient id="lg5"><stop offset="0" stop-color="#fccece" stop-opacity="0"/><stop offset="1" stop-color="#bb4966"/></linearGradient><linearGradient id="SVGID_9_" gradientUnits="userSpaceOnUse" x1="121.161" x2="175.54" xlink:href="#lg5" y1="245.987" y2="190.785"/><linearGradient id="SVGID_10_" gradientTransform="matrix(-1 0 0 1 -3933 0)" gradientUnits="userSpaceOnUse" x1="-4324.636" x2="-4261.491" xlink:href="#lg4" y1="207.933" y2="279.521"/><linearGradient id="SVGID_11_" gradientTransform="matrix(-1 0 0 1 -3933 0)" gradientUnits="userSpaceOnUse" x1="-4321.838" x2="-4267.46" xlink:href="#lg2" y1="245.987" y2="190.785"/><linearGradient id="SVGID_12_" gradientUnits="userSpaceOnUse" x1="418.089" x2="285.851" xlink:href="#lg5" y1="263.639" y2="175.068"/><linearGradient id="SVGID_13_" gradientUnits="userSpaceOnUse" x1="185.832" x2="416.94" xlink:href="#lg4" y1="163.882" y2="425.886"/><linearGradient id="SVGID_14_" gradientUnits="userSpaceOnUse" x1="412.791" x2="286.109" xlink:href="#lg5" y1="223.542" y2="96.86"/><linearGradient id="lg6"><stop offset="0" stop-color="#ffe548"/><stop offset=".1758" stop-color="#ffde50"/><stop offset=".4446" stop-color="#ffca65"/><stop offset=".7709" stop-color="#ffaa87"/><stop offset="1" stop-color="#ff90a4"/></linearGradient><linearGradient id="SVGID_15_" gradientUnits="userSpaceOnUse" x1="248.42" x2="315.697" xlink:href="#lg6" y1="334.01" y2="440.756"/><linearGradient id="lg7"><stop offset="0" stop-color="#ffd00d" stop-opacity="0"/><stop offset="1" stop-color="#db722b"/></linearGradient><linearGradient id="SVGID_16_" gradientUnits="userSpaceOnUse" x1="255" x2="255" xlink:href="#lg7" y1="327" y2="409.006"/><linearGradient id="SVGID_17_" gradientUnits="userSpaceOnUse" x1="255" x2="255" xlink:href="#lg5" y1="234.391" y2="375"/><linearGradient id="SVGID_18_" gradientTransform="matrix(1 0 0 -1 0 465.882)" gradientUnits="userSpaceOnUse" x1="177.277" x2="208.58" xlink:href="#lg3" y1="220.318" y2="259.659"/><linearGradient id="SVGID_19_" gradientTransform="matrix(1 0 0 -1 0 465.882)" gradientUnits="userSpaceOnUse" x1="299.855" x2="331.158" xlink:href="#lg3" y1="220.318" y2="259.659"/><linearGradient id="SVGID_20_" gradientUnits="userSpaceOnUse" x1="210.298" x2="267.972" xlink:href="#lg6" y1="54.342" y2="154.035"/><linearGradient id="SVGID_21_" gradientUnits="userSpaceOnUse" x1="399.381" x2="290.381" xlink:href="#lg7" y1="151.197" y2="81.197"/><linearGradient id="SVGID_22_" gradientUnits="userSpaceOnUse" x1="275.186" x2="257.266" xlink:href="#lg7" y1="80.859" y2="245.229"/><linearGradient id="SVGID_23_" gradientUnits="userSpaceOnUse" x1="138.373" x2="128.251" xlink:href="#lg7" y1="97.468" y2="190.306"/><linearGradient id="SVGID_24_" gradientUnits="userSpaceOnUse" x1="387.692" x2="374.098" xlink:href="#lg7" y1="109.818" y2="137.625"/><linearGradient id="SVGID_25_" gradientUnits="userSpaceOnUse" x1="193.711" x2="193.711" xlink:href="#lg6" y1="170.538" y2="207.87"/><linearGradient id="SVGID_26_" gradientUnits="userSpaceOnUse" x1="316.289" x2="316.289" xlink:href="#lg6" y1="170.538" y2="207.87"/><linearGradient id="SVGID_27_" gradientUnits="userSpaceOnUse" x1="234.27" x2="264.754" xlink:href="#lg3" y1="343.868" y2="382.18"/><linearGradient id="SVGID_28_" gradientUnits="userSpaceOnUse" x1="257.543" x2="194.543" xlink:href="#lg7" y1="359.956" y2="280.956"/><linearGradient id="SVGID_29_" gradientUnits="userSpaceOnUse" x1="201.974" x2="175.474" y1="295.056" y2="342.056"><stop offset="0" stop-color="#3fa9f5"/><stop offset="1" stop-color="#666ad6"/></linearGradient><linearGradient id="SVGID_30_" gradientUnits="userSpaceOnUse" x1="312.485" x2="344.122" xlink:href="#lg3" y1="53.621" y2="139.494"/><linearGradient id="SVGID_31_" gradientUnits="userSpaceOnUse" x1="379.105" x2="410.742" xlink:href="#lg3" y1="29.815" y2="115.687"/><linearGradient id="SVGID_32_" gradientUnits="userSpaceOnUse" x1="415.998" x2="447.635" xlink:href="#lg3" y1="15.485" y2="101.358"/><path d="m433.594 455.105-37.424-34.092h-282.34l-37.424 34.092c-12.84 11.696-22.6 26.376-28.419 42.74-2.107 5.925 2.287 12.151 8.576 12.151h396.875c6.289 0 10.682-6.225 8.576-12.151-5.819-16.364-15.58-31.044-28.42-42.74z" fill="url(#SVGID_1_)"/><path d="m453.443 510h-253.291l-24.606-24.618c-1.928-2.694-5.03-6.909-8.948-11.975-.334-.198-52.772-52.389-52.772-52.389h282.346l37.422 34.085c6.414 5.846 12.074 12.445 16.845 19.626 4.77 7.18 8.663 14.942 11.568 23.123 2.114 5.919-2.285 12.148-8.564 12.148z" fill="url(#SVGID_2_)"/><path d="m433.594 455.105-37.424-34.092h-141.17v88.982h198.438c6.289 0 10.682-6.225 8.576-12.15-5.819-16.364-15.58-31.043-28.42-42.74z" fill="url(#SVGID_3_)"/><path d="m453.443 510h-113.551l-68.974-68.393 33.702-20.59h91.553l37.422 34.085c6.414 5.846 12.074 12.445 16.845 19.626.358.544.717 1.1 1.063 1.656.074.099.148.21.198.321.148.198.272.396.395.606 4.029 6.451 7.353 13.335 9.912 20.54 2.113 5.92-2.286 12.149-8.565 12.149z" fill="url(#SVGID_4_)"/><path d="m224.465 496.445-27.44-27.44 16.117-16.117c23.118-23.118 60.6-23.118 83.718 0l16.117 16.117-27.44 27.44c-16.866 16.865-44.208 16.865-61.072 0z" fill="url(#SVGID_5_)"/><path d="m239.086 441.611-58.153 44.56c-1.703 1.305-4.142.95-5.393-.793-8.055-11.229-36.268-49.018-61.71-64.364 0 0 23.503-21.422 56.459-21.422z" fill="url(#SVGID_6_)"/><path d="m270.914 441.611 58.153 44.56c1.703 1.305 4.142.95 5.393-.793 8.055-11.229 36.268-49.018 61.71-64.364 0 0-23.503-21.422-56.46-21.422z" fill="url(#SVGID_7_)"/><circle cx="137.159" cy="229.241" fill="url(#SVGID_8_)" r="40.166"/><circle cx="129.744" cy="237.274" fill="url(#SVGID_9_)" r="29.455"/><circle cx="372.841" cy="229.241" fill="url(#SVGID_10_)" r="40.166"/><circle cx="380.256" cy="237.274" fill="url(#SVGID_11_)" r="29.455"/><path d="m332.675 229.241c0 22.183 17.983 40.166 40.166 40.166s40.166-17.983 40.166-40.166l-40.166-40.166c-22.183.001-40.166 17.983-40.166 40.166z" fill="url(#SVGID_12_)"/><path d="m257.035 396.953h-4.07c-68.868 0-122.668-59.483-115.775-128.006l9.023-89.701c5.458-54.263 51.13-95.571 105.666-95.571h6.241c54.536 0 100.208 41.308 105.666 95.571l9.023 89.701c6.894 68.523-46.906 128.006-115.774 128.006z" fill="url(#SVGID_13_)"/><path d="m372.841 189.076c-2.734 0-5.404.276-7.985.796l-1.069-10.625c-3.428-34.08-22.721-63.046-50.107-79.882l-16.241 29.811c-.963 1.573-1.442 3.191-1.442 4.849 0 1.225.348 2.208 1.049 2.949 0 0 110.154 110.133 110.511 110.511.216.229.482.411.772.57 2.982-5.613 4.678-12.014 4.678-18.814 0-22.183-17.983-40.165-40.166-40.165z" fill="url(#SVGID_14_)"/><path d="m293.932 290.626c-.184.112-.369.223-.555.334-23.568 14.015-53.185 14.015-76.752 0-.186-.111-.371-.222-.555-.334-5.648-3.426-12.449-4.436-18.796-2.603-14.191 4.098-38.248 14.06-53.276 36.739-5.763 8.696-6.712 19.717-2.719 29.355 11.993 28.948 46.1 92.763 113.723 92.763s101.73-63.815 113.723-92.763c3.993-9.638 3.044-20.659-2.719-29.355-15.028-22.679-39.085-32.64-53.276-36.739-6.349-1.834-13.15-.824-18.798 2.603z" fill="url(#SVGID_15_)"/><path d="m218.729 357.706c1.972.729 4.01 1.281 6.102 1.501 5.696.599 11.493-.735 16.408-3.901 8.38-5.398 19.143-5.398 27.523 0 4.915 3.166 10.712 4.5 16.407 3.901 2.091-.22 4.13-.772 6.102-1.501 12.869-4.757 41.117-18.445 58.061-51.099-12.81-10.318-26.977-15.804-36.604-18.584-6.347-1.833-13.148-.823-18.796 2.603-.184.112-.369.223-.555.333-23.568 14.015-53.185 14.015-76.752 0-.186-.111-.371-.222-.555-.333-5.648-3.426-12.449-4.436-18.796-2.603-9.628 2.78-23.795 8.266-36.604 18.584 16.942 32.654 45.19 46.342 58.059 51.099z" fill="url(#SVGID_16_)"/><path d="m290.975 276.278-9.198-68.458h-53.554l-9.198 68.458c-1.298 9.659 4.469 18.984 13.783 21.853 14.435 4.445 29.949 4.445 44.384 0 9.314-2.868 15.081-12.194 13.783-21.853z" fill="url(#SVGID_17_)"/><path d="m193.711 250.102c-16.615 0-30.133-13.153-30.133-29.321 0-2.761 2.238-5 5-5s5 2.239 5 5c0 10.654 9.031 19.321 20.133 19.321s20.133-8.667 20.133-19.321c0-2.761 2.238-5 5-5s5 2.239 5 5c0 16.167-13.518 29.321-30.133 29.321z" fill="url(#SVGID_18_)"/><path d="m316.289 250.102c-16.615 0-30.133-13.153-30.133-29.321 0-2.761 2.238-5 5-5s5 2.239 5 5c0 10.654 9.031 19.321 20.133 19.321s20.133-8.667 20.133-19.321c0-2.761 2.238-5 5-5s5 2.239 5 5c0 16.167-13.518 29.321-30.133 29.321z" fill="url(#SVGID_19_)"/><path d="m400.635 121.486c-9.405 9.059-20.379 12.383-20.379 12.383v25.644c0 6.488-1.001 12.927-2.966 19.106l-10.307 32.367c0-40.685-20.12-43.502-20.12-43.502-23.889-10.06-18.946-43.502-18.946-43.502-37.904 54.378-126.887 26.373-126.887 26.373 0-18.958 18.958-26.373 18.958-26.373-42.477 0-42.662 25.113-42.662 25.545 0 16.388-6.315 32.157-17.648 44.009l-16.659 17.45-8.626-25.508c-4.214-12.421-4.622-25.904-.643-38.398.741-2.311 1.607-4.56 2.632-6.612-12.989 3.016-30.143-2.36-38.411-5.462-2.966-1.1-4.721-4.14-4.214-7.267 2.768-17.228 16.734-70.494 83.569-70.494-9.751-6.587-15.683-15.362-18.798-21.133-1.743-3.213-.395-7.217 2.929-8.713 32.17-14.385 188.853-77.365 197.764 56.281 15.51-10.913 38.312 6.686 43.7 30.081.643 2.794-.222 5.735-2.286 7.725z" fill="url(#SVGID_20_)"/><path d="m380.255 133.87s10.974-3.325 20.379-12.383c2.064-1.99 2.929-4.931 2.286-7.724-5.388-23.395-28.19-40.994-43.7-30.081-1.114-16.715-4.541-30.354-9.745-41.397h-46.925c-1.573 0-2.732.655-3.473 1.966-.744 1.31-1.114 2.709-1.114 4.194 0 1.661.393 3.102 1.179 4.325.481.75 1.095 1.267 1.838 1.557l23.836 23.836c.066.13.133.259.207.384l-27.585 50.632c-.963 1.573-1.442 3.191-1.442 4.849 0 1.225.348 2.208 1.049 2.949 0 0 3.008 3.007 8.01 8.009 8.624-5.014 16.47-11.832 22.861-21.001 0 0-4.944 33.443 18.946 43.503 0 0 18.715 2.634 20.04 39.338l1.067 1.067 9.32-29.269c1.965-6.179 2.966-12.618 2.966-19.107z" fill="url(#SVGID_21_)"/><path d="m327.916 123.983 12.359-29.451-1.305.852c-39.153 25.569-82.76 43.558-128.554 53.03l-9.386 1.942s88.982 28.005 126.886-26.373z" fill="url(#SVGID_22_)"/><path d="m177.325 105.494-14.16-1.607c-21.223-2.409-42.444 4.531-58.143 19.013l-10.283 9.487c.75 1.165 1.852 2.108 3.232 2.62 8.268 3.102 25.422 8.478 38.411 5.462 6.826-12.614 17.312-22.867 30.077-29.407z" fill="url(#SVGID_23_)"/><path d="m400.635 121.486c1.994-1.923 2.856-4.733 2.332-7.44-15.663-6.398-33.031-7.155-33.031-7.155 11.432 12.668 10.32 26.979 10.32 26.979s10.974-3.325 20.379-12.384z" fill="url(#SVGID_24_)"/><path d="m193.711 167.448c-10.589 0-20.393 3.351-28.414 9.05-5.687 4.041-6.391 12.22-1.458 17.153l.696.696c3.925 3.925 10.039 4.281 14.604 1.123 4.138-2.863 9.159-4.54 14.572-4.54s10.434 1.677 14.572 4.54c4.564 3.158 10.679 2.802 14.604-1.123l.696-.696c4.933-4.933 4.229-13.112-1.458-17.153-8.021-5.699-17.826-9.05-28.414-9.05z" fill="url(#SVGID_25_)"/><path d="m316.289 167.448c-10.589 0-20.393 3.351-28.414 9.05-5.687 4.041-6.391 12.22-1.458 17.153l.696.696c3.925 3.925 10.039 4.281 14.604 1.123 4.138-2.863 9.159-4.54 14.572-4.54s10.434 1.677 14.572 4.54c4.564 3.158 10.679 2.802 14.604-1.123l.696-.696c4.933-4.933 4.229-13.112-1.458-17.153-8.021-5.699-17.825-9.05-28.414-9.05z" fill="url(#SVGID_26_)"/><ellipse cx="255" cy="369.921" fill="url(#SVGID_27_)" rx="14.418" ry="18.641"/><path d="m163.674 304.282c1.467 2.49 3.43 4.987 5.974 7.434l126.415 126.416c18.583-8.392 33.366-21.87 44.829-36.186l-99.581-99.581c-.459-1.044-1.211-1.953-2.18-2.589-1.304-.28-2.604-.586-3.895-.936-10.846-.018-21.626-3.687-30.362-10.844-.182-.167-.365-.326-.549-.486-.117-.134-.238-.25-.356-.38-2.243-.03-4.498.256-6.698.891-8.878 2.566-21.62 7.426-33.597 16.261z" fill="url(#SVGID_28_)"/><path d="m198.633 281.872c9.648 11.377 23.452 17.148 37.287 16.975 4.972-.062 7.738 5.839 4.549 9.653-1.717 2.053-3.63 3.99-5.735 5.785-19.03 16.216-47.066 14.763-65.086-2.569-25.914-24.925 7.579-55.084 28.985-29.844z" fill="url(#SVGID_29_)"/><path d="m313.69 125.769h39.712c1.484 0 2.621.655 3.408 1.966.786 1.311 1.179 2.709 1.179 4.194 0 1.487-.393 2.883-1.179 4.194s-1.923 1.966-3.408 1.966h-53.08c-1.487 0-2.578-.371-3.276-1.114-.7-.741-1.049-1.724-1.049-2.949 0-1.659.479-3.277 1.442-4.849l40.629-74.574h-35.518c-1.487 0-2.621-.61-3.408-1.835-.786-1.223-1.179-2.664-1.179-4.325 0-1.485.37-2.883 1.114-4.194.741-1.311 1.9-1.966 3.473-1.966h48.886c1.485 0 2.599.35 3.342 1.048.742.7 1.114 1.661 1.114 2.883 0 1.573-.524 3.277-1.573 5.112z" fill="url(#SVGID_30_)"/><path d="m405.599 63.013c1.222 0 2.271.547 3.145 1.638.873 1.094 1.311 2.47 1.311 4.128 0 1.487-.415 2.798-1.245 3.932-.832 1.136-1.9 1.704-3.211 1.704h-40.76c-1.748 0-2.994-.524-3.735-1.573-.743-1.048-1.114-2.183-1.114-3.408 0-1.048.262-2.052.786-3.014.524-.96 1.048-1.79 1.573-2.49l28.047-40.236h-24.902c-1.225 0-2.25-.567-3.08-1.704-.832-1.135-1.245-2.49-1.245-4.063 0-1.485.393-2.795 1.179-3.932.786-1.134 1.835-1.704 3.146-1.704h37.877c1.222 0 2.314.393 3.276 1.18.96.786 1.442 2.011 1.442 3.669 0 1.835-.7 3.715-2.097 5.636l-28.178 40.236h27.785z" fill="url(#SVGID_31_)"/><path d="m458.091 91.024c1.222 0 2.271.547 3.145 1.638.873 1.094 1.311 2.47 1.311 4.128 0 1.487-.415 2.798-1.245 3.932-.832 1.136-1.9 1.704-3.211 1.704h-40.76c-1.748 0-2.994-.524-3.735-1.573-.743-1.048-1.114-2.183-1.114-3.408 0-1.048.262-2.052.786-3.014.524-.96 1.048-1.79 1.573-2.49l28.047-40.236h-24.901c-1.225 0-2.251-.567-3.08-1.704-.832-1.135-1.245-2.49-1.245-4.063 0-1.485.393-2.795 1.179-3.932.786-1.134 1.835-1.704 3.146-1.704h37.877c1.222 0 2.314.393 3.276 1.18.96.786 1.442 2.011 1.442 3.669 0 1.835-.7 3.715-2.097 5.636l-28.178 40.236h27.784z" fill="url(#SVGID_32_)"/></svg>